<svg id="visual" viewBox="0 0 960 200" width="960" height="200" xmlns="http://www.w3.org/2000/svg" xmlns:xlink="http://www.w3.org/1999/xlink" version="1.1"><rect x="0" y="0" width="960" height="200" fill="#141320"></rect><path d="M0 128L137 138L274 120L411 145L549 122L686 143L823 131L960 129L960 201L823 201L686 201L549 201L411 201L274 201L137 201L0 201Z" fill="#3e5f9d"></path><path d="M0 135L137 131L274 150L411 136L549 154L686 147L823 149L960 151L960 201L823 201L686 201L549 201L411 201L274 201L137 201L0 201Z" fill="#3b538b"></path><path d="M0 160L137 145L274 145L411 150L549 148L686 170L823 168L960 154L960 201L823 201L686 201L549 201L411 201L274 201L137 201L0 201Z" fill="#374879"></path><path d="M0 160L137 169L274 169L411 170L549 177L686 174L823 174L960 165L960 201L823 201L686 201L549 201L411 201L274 201L137 201L0 201Z" fill="#323d68"></path><path d="M0 181L137 190L274 188L411 176L549 176L686 179L823 180L960 182L960 201L823 201L686 201L549 201L411 201L274 201L137 201L0 201Z" fill="#2c3357"></path></svg>