<svg id="visual" viewBox="0 0 900 250" width="900" height="250" xmlns="http://www.w3.org/2000/svg" xmlns:xlink="http://www.w3.org/1999/xlink" version="1.1"><rect x="0" y="0" width="900" height="250" fill="#000000"></rect><path d="M0 80L21.5 81.2C43 82.3 86 84.7 128.8 86.2C171.7 87.7 214.3 88.3 257.2 84.2C300 80 343 71 385.8 69.2C428.7 67.3 471.3 72.7 514.2 73.3C557 74 600 70 642.8 72.8C685.7 75.7 728.3 85.3 771.2 90.5C814 95.7 857 96.3 878.5 96.7L900 97L900 0L878.5 0C857 0 814 0 771.2 0C728.3 0 685.7 0 642.8 0C600 0 557 0 514.2 0C471.3 0 428.7 0 385.8 0C343 0 300 0 257.2 0C214.3 0 171.7 0 128.8 0C86 0 43 0 21.5 0L0 0Z" fill="#7fb2da"></path><path d="M0 49L21.5 49.3C43 49.7 86 50.3 128.8 52.7C171.7 55 214.3 59 257.2 62C300 65 343 67 385.8 67.3C428.7 67.7 471.3 66.3 514.2 67.7C557 69 600 73 642.8 71.5C685.7 70 728.3 63 771.2 62.3C814 61.7 857 67.3 878.5 70.2L900 73L900 0L878.5 0C857 0 814 0 771.2 0C728.3 0 685.7 0 642.8 0C600 0 557 0 514.2 0C471.3 0 428.7 0 385.8 0C343 0 300 0 257.2 0C214.3 0 171.7 0 128.8 0C86 0 43 0 21.5 0L0 0Z" fill="#6b9dcc"></path><path d="M0 36L21.5 39.7C43 43.3 86 50.7 128.8 53.8C171.7 57 214.3 56 257.2 56.2C300 56.3 343 57.7 385.8 54.5C428.7 51.3 471.3 43.7 514.2 40.5C557 37.3 600 38.7 642.8 41.3C685.7 44 728.3 48 771.2 51.3C814 54.7 857 57.3 878.5 58.7L900 60L900 0L878.5 0C857 0 814 0 771.2 0C728.3 0 685.7 0 642.8 0C600 0 557 0 514.2 0C471.3 0 428.7 0 385.8 0C343 0 300 0 257.2 0C214.3 0 171.7 0 128.8 0C86 0 43 0 21.5 0L0 0Z" fill="#5a88bd"></path><path d="M0 39L21.5 38.2C43 37.3 86 35.7 128.8 37C171.7 38.3 214.3 42.7 257.2 44C300 45.3 343 43.7 385.8 40.2C428.7 36.7 471.3 31.3 514.2 31.5C557 31.7 600 37.3 642.8 38.8C685.7 40.3 728.3 37.7 771.2 38.5C814 39.3 857 43.7 878.5 45.8L900 48L900 0L878.5 0C857 0 814 0 771.2 0C728.3 0 685.7 0 642.8 0C600 0 557 0 514.2 0C471.3 0 428.7 0 385.8 0C343 0 300 0 257.2 0C214.3 0 171.7 0 128.8 0C86 0 43 0 21.5 0L0 0Z" fill="#4b73ad"></path><path d="M0 20L21.5 21.2C43 22.3 86 24.7 128.8 25C171.7 25.3 214.3 23.7 257.2 21.2C300 18.7 343 15.3 385.8 14.2C428.7 13 471.3 14 514.2 15.3C557 16.7 600 18.3 642.8 19.2C685.7 20 728.3 20 771.2 20.7C814 21.3 857 22.7 878.5 23.3L900 24L900 0L878.5 0C857 0 814 0 771.2 0C728.3 0 685.7 0 642.8 0C600 0 557 0 514.2 0C471.3 0 428.7 0 385.8 0C343 0 300 0 257.2 0C214.3 0 171.7 0 128.8 0C86 0 43 0 21.5 0L0 0Z" fill="#3e5f9d"></path></svg>