<svg id="visual" viewBox="0 0 1920 1080" width="1920" height="1080" xmlns="http://www.w3.org/2000/svg" xmlns:xlink="http://www.w3.org/1999/xlink" version="1.1"><g stroke-width="1" stroke-linejoin="bevel"><path d="M1037.7 529L823.3 558L1027.7 684Z" fill="#112e42" stroke="#112e42"></path><path d="M823.3 558L816.3 692L1027.7 684Z" fill="#112e42" stroke="#112e42"></path><path d="M1037.7 529L845.3 378L823.3 558Z" fill="#19435d" stroke="#19435d"></path><path d="M816.3 692L850.3 866L1027.7 684Z" fill="#081a28" stroke="#081a28"></path><path d="M845.3 378L633 535L823.3 558Z" fill="#112e42" stroke="#112e42"></path><path d="M823.3 558L633 535L816.3 692Z" fill="#081a28" stroke="#081a28"></path><path d="M816.3 692L668 916L850.3 866Z" fill="#0c2435" stroke="#0c2435"></path><path d="M1261 515L1105.7 332L1037.7 529Z" fill="#081a28" stroke="#081a28"></path><path d="M1037.7 529L1105.7 332L845.3 378Z" fill="#0c2435" stroke="#0c2435"></path><path d="M1034.7 923L1240 728L1027.7 684Z" fill="#00101c" stroke="#00101c"></path><path d="M1027.7 684L1240 728L1037.7 529Z" fill="#112e42" stroke="#112e42"></path><path d="M1240 728L1261 515L1037.7 529Z" fill="#19435d" stroke="#19435d"></path><path d="M850.3 866L1034.7 923L1027.7 684Z" fill="#246688" stroke="#246688"></path><path d="M633 535L600 684L816.3 692Z" fill="#19435d" stroke="#19435d"></path><path d="M1105.7 332L882.3 204L845.3 378Z" fill="#112e42" stroke="#112e42"></path><path d="M845.3 378L620 353L633 535Z" fill="#15384f" stroke="#15384f"></path><path d="M882.3 204L620 353L845.3 378Z" fill="#246688" stroke="#246688"></path><path d="M633 535L433.7 530L600 684Z" fill="#1d4e6b" stroke="#1d4e6b"></path><path d="M1261 515L1264 361L1105.7 332Z" fill="#297ea6" stroke="#297ea6"></path><path d="M1105.7 332L1096.7 200L882.3 204Z" fill="#081a28" stroke="#081a28"></path><path d="M600 684L668 916L816.3 692Z" fill="#00101c" stroke="#00101c"></path><path d="M850.3 866L876.3 1080L1034.7 923Z" fill="#0c2435" stroke="#0c2435"></path><path d="M1264 361L1096.7 200L1105.7 332Z" fill="#246688" stroke="#246688"></path><path d="M668 916L876.3 1080L850.3 866Z" fill="#0c2435" stroke="#0c2435"></path><path d="M1034.7 923L1307 916L1240 728Z" fill="#277297" stroke="#277297"></path><path d="M1099.7 1080L1307 916L1034.7 923Z" fill="#297ea6" stroke="#297ea6"></path><path d="M1240 728L1494.3 561L1261 515Z" fill="#00101c" stroke="#00101c"></path><path d="M1261 515L1490.3 323L1264 361Z" fill="#246688" stroke="#246688"></path><path d="M876.3 1080L1099.7 1080L1034.7 923Z" fill="#277297" stroke="#277297"></path><path d="M463.7 368L433.7 530L633 535Z" fill="#00101c" stroke="#00101c"></path><path d="M414.7 903L637 1080L668 916Z" fill="#19435d" stroke="#19435d"></path><path d="M604 150L463.7 368L620 353Z" fill="#19435d" stroke="#19435d"></path><path d="M620 353L463.7 368L633 535Z" fill="#297ea6" stroke="#297ea6"></path><path d="M1487.3 759L1494.3 561L1240 728Z" fill="#081a28" stroke="#081a28"></path><path d="M1264 361L1304 150L1096.7 200Z" fill="#205a7a" stroke="#205a7a"></path><path d="M816.3 0L604 150L882.3 204Z" fill="#0c2435" stroke="#0c2435"></path><path d="M882.3 204L604 150L620 353Z" fill="#19435d" stroke="#19435d"></path><path d="M668 916L637 1080L876.3 1080Z" fill="#081a28" stroke="#081a28"></path><path d="M414.7 903L668 916L600 684Z" fill="#00101c" stroke="#00101c"></path><path d="M244.3 706L387.7 753L433.7 530Z" fill="#0c2435" stroke="#0c2435"></path><path d="M433.7 530L387.7 753L600 684Z" fill="#00101c" stroke="#00101c"></path><path d="M1307 916L1487.3 759L1240 728Z" fill="#081a28" stroke="#081a28"></path><path d="M1454.3 184L1304 150L1264 361Z" fill="#0c2435" stroke="#0c2435"></path><path d="M1096.7 200L1037.7 0L882.3 204Z" fill="#0c2435" stroke="#0c2435"></path><path d="M1099.7 1080L1285 1080L1307 916Z" fill="#205a7a" stroke="#205a7a"></path><path d="M1307 916L1474.3 895L1487.3 759Z" fill="#081a28" stroke="#081a28"></path><path d="M387.7 753L414.7 903L600 684Z" fill="#00101c" stroke="#00101c"></path><path d="M1252 0L1037.7 0L1096.7 200Z" fill="#19435d" stroke="#19435d"></path><path d="M1496.3 1080L1474.3 895L1307 916Z" fill="#081a28" stroke="#081a28"></path><path d="M1037.7 0L816.3 0L882.3 204Z" fill="#205a7a" stroke="#205a7a"></path><path d="M1494.3 561L1490.3 323L1261 515Z" fill="#112e42" stroke="#112e42"></path><path d="M816.3 0L676 0L604 150Z" fill="#1d4e6b" stroke="#1d4e6b"></path><path d="M604 150L395.7 160L463.7 368Z" fill="#00101c" stroke="#00101c"></path><path d="M1490.3 323L1454.3 184L1264 361Z" fill="#0c2435" stroke="#0c2435"></path><path d="M1304 150L1252 0L1096.7 200Z" fill="#0c2435" stroke="#0c2435"></path><path d="M1502.3 0L1252 0L1304 150Z" fill="#246688" stroke="#246688"></path><path d="M449.7 0L395.7 160L604 150Z" fill="#1d4e6b" stroke="#1d4e6b"></path><path d="M177.3 548L244.3 706L433.7 530Z" fill="#1d4e6b" stroke="#1d4e6b"></path><path d="M217.3 378L433.7 530L463.7 368Z" fill="#0c2435" stroke="#0c2435"></path><path d="M387.7 753L197.3 920L414.7 903Z" fill="#1d4e6b" stroke="#1d4e6b"></path><path d="M414.7 903L422.7 1080L637 1080Z" fill="#205a7a" stroke="#205a7a"></path><path d="M197.3 920L422.7 1080L414.7 903Z" fill="#0c2435" stroke="#0c2435"></path><path d="M1285 1080L1496.3 1080L1307 916Z" fill="#1d4e6b" stroke="#1d4e6b"></path><path d="M1719.7 877L1717.7 701L1487.3 759Z" fill="#0c2435" stroke="#0c2435"></path><path d="M1487.3 759L1717.7 701L1494.3 561Z" fill="#0c2435" stroke="#0c2435"></path><path d="M395.7 160L217.3 378L463.7 368Z" fill="#112e42" stroke="#112e42"></path><path d="M217.3 378L177.3 548L433.7 530Z" fill="#00101c" stroke="#00101c"></path><path d="M676 0L449.7 0L604 150Z" fill="#19435d" stroke="#19435d"></path><path d="M395.7 160L194.3 215L217.3 378Z" fill="#246688" stroke="#246688"></path><path d="M1719.7 877L1487.3 759L1474.3 895Z" fill="#19435d" stroke="#19435d"></path><path d="M1494.3 561L1712.7 341L1490.3 323Z" fill="#205a7a" stroke="#205a7a"></path><path d="M1490.3 323L1707.7 169L1454.3 184Z" fill="#205a7a" stroke="#205a7a"></path><path d="M1717.7 701L1724.7 543L1494.3 561Z" fill="#112e42" stroke="#112e42"></path><path d="M0 707L197.3 920L244.3 706Z" fill="#205a7a" stroke="#205a7a"></path><path d="M244.3 706L197.3 920L387.7 753Z" fill="#0c2435" stroke="#0c2435"></path><path d="M1724.7 543L1712.7 341L1494.3 561Z" fill="#19435d" stroke="#19435d"></path><path d="M1454.3 184L1502.3 0L1304 150Z" fill="#0c2435" stroke="#0c2435"></path><path d="M1707.7 169L1502.3 0L1454.3 184Z" fill="#277297" stroke="#277297"></path><path d="M1496.3 1080L1719.7 877L1474.3 895Z" fill="#0c2435" stroke="#0c2435"></path><path d="M1920 704L1920 533L1724.7 543Z" fill="#15384f" stroke="#15384f"></path><path d="M0 385L0 501L177.3 548Z" fill="#0c2435" stroke="#0c2435"></path><path d="M250.3 0L194.3 215L395.7 160Z" fill="#19435d" stroke="#19435d"></path><path d="M1920 173L1707.7 169L1712.7 341Z" fill="#112e42" stroke="#112e42"></path><path d="M1712.7 341L1707.7 169L1490.3 323Z" fill="#112e42" stroke="#112e42"></path><path d="M0 912L178.3 1080L197.3 920Z" fill="#277297" stroke="#277297"></path><path d="M197.3 920L178.3 1080L422.7 1080Z" fill="#205a7a" stroke="#205a7a"></path><path d="M449.7 0L250.3 0L395.7 160Z" fill="#19435d" stroke="#19435d"></path><path d="M1496.3 1080L1744.7 1080L1719.7 877Z" fill="#112e42" stroke="#112e42"></path><path d="M1920 704L1724.7 543L1717.7 701Z" fill="#277297" stroke="#277297"></path><path d="M0 385L177.3 548L217.3 378Z" fill="#1d4e6b" stroke="#1d4e6b"></path><path d="M177.3 548L0 707L244.3 706Z" fill="#1d4e6b" stroke="#1d4e6b"></path><path d="M0 385L217.3 378L194.3 215Z" fill="#15384f" stroke="#15384f"></path><path d="M0 501L0 707L177.3 548Z" fill="#277297" stroke="#277297"></path><path d="M0 180L0 385L194.3 215Z" fill="#277297" stroke="#277297"></path><path d="M1920 704L1717.7 701L1719.7 877Z" fill="#081a28" stroke="#081a28"></path><path d="M1724.7 543L1920 533L1712.7 341Z" fill="#1d4e6b" stroke="#1d4e6b"></path><path d="M1920 906L1920 704L1719.7 877Z" fill="#0c2435" stroke="#0c2435"></path><path d="M0 707L0 912L197.3 920Z" fill="#297ea6" stroke="#297ea6"></path><path d="M1920 173L1740.7 0L1707.7 169Z" fill="#112e42" stroke="#112e42"></path><path d="M1707.7 169L1740.7 0L1502.3 0Z" fill="#00101c" stroke="#00101c"></path><path d="M1920 533L1920 335L1712.7 341Z" fill="#0c2435" stroke="#0c2435"></path><path d="M0 0L0 180L194.3 215Z" fill="#19435d" stroke="#19435d"></path><path d="M1744.7 1080L1920 906L1719.7 877Z" fill="#0c2435" stroke="#0c2435"></path><path d="M0 912L0 1080L178.3 1080Z" fill="#0c2435" stroke="#0c2435"></path><path d="M1920 335L1920 173L1712.7 341Z" fill="#205a7a" stroke="#205a7a"></path><path d="M1744.7 1080L1920 1080L1920 906Z" fill="#297ea6" stroke="#297ea6"></path><path d="M250.3 0L0 0L194.3 215Z" fill="#297ea6" stroke="#297ea6"></path><path d="M1920 173L1920 0L1740.7 0Z" fill="#246688" stroke="#246688"></path></g></svg>