<svg id="visual" viewBox="0 0 960 200" width="960" height="200" xmlns="http://www.w3.org/2000/svg" xmlns:xlink="http://www.w3.org/1999/xlink" version="1.1"><path d="M0 15L14.5 18.3C29 21.7 58 28.3 87.2 29C116.3 29.7 145.7 24.3 174.8 20.7C204 17 233 15 262 14C291 13 320 13 349 15.7C378 18.3 407 23.7 436.2 24C465.3 24.3 494.7 19.7 523.8 20.7C553 21.7 582 28.3 611 30.7C640 33 669 31 698 29.7C727 28.3 756 27.7 785.2 26.3C814.3 25 843.7 23 872.8 22.7C902 22.3 931 23.7 945.5 24.3L960 25L960 0L945.5 0C931 0 902 0 872.8 0C843.7 0 814.3 0 785.2 0C756 0 727 0 698 0C669 0 640 0 611 0C582 0 553 0 523.8 0C494.7 0 465.3 0 436.2 0C407 0 378 0 349 0C320 0 291 0 262 0C233 0 204 0 174.8 0C145.7 0 116.3 0 87.2 0C58 0 29 0 14.5 0L0 0Z" fill="#3e5f9d"></path><path d="M0 85L14.5 83C29 81 58 77 87.2 76.7C116.3 76.3 145.7 79.7 174.8 79.7C204 79.7 233 76.3 262 76.7C291 77 320 81 349 78.7C378 76.3 407 67.7 436.2 63.7C465.3 59.7 494.7 60.3 523.8 63.3C553 66.3 582 71.7 611 76.7C640 81.7 669 86.3 698 86.7C727 87 756 83 785.2 80C814.3 77 843.7 75 872.8 76C902 77 931 81 945.5 83L960 85L960 23L945.5 22.3C931 21.7 902 20.3 872.8 20.7C843.7 21 814.3 23 785.2 24.3C756 25.7 727 26.3 698 27.7C669 29 640 31 611 28.7C582 26.3 553 19.7 523.8 18.7C494.7 17.7 465.3 22.3 436.2 22C407 21.7 378 16.3 349 13.7C320 11 291 11 262 12C233 13 204 15 174.8 18.7C145.7 22.3 116.3 27.7 87.2 27C58 26.3 29 19.7 14.5 16.3L0 13Z" fill="#384a7b"></path><path d="M0 127L14.5 122.3C29 117.7 58 108.3 87.2 105C116.3 101.7 145.7 104.3 174.8 103.3C204 102.3 233 97.7 262 101.3C291 105 320 117 349 113.7C378 110.3 407 91.7 436.2 85C465.3 78.3 494.7 83.7 523.8 87.7C553 91.7 582 94.3 611 97.3C640 100.3 669 103.7 698 107.3C727 111 756 115 785.2 115C814.3 115 843.7 111 872.8 109C902 107 931 107 945.5 107L960 107L960 83L945.5 81C931 79 902 75 872.8 74C843.7 73 814.3 75 785.2 78C756 81 727 85 698 84.7C669 84.3 640 79.7 611 74.7C582 69.7 553 64.3 523.8 61.3C494.7 58.3 465.3 57.7 436.2 61.7C407 65.7 378 74.3 349 76.7C320 79 291 75 262 74.7C233 74.3 204 77.7 174.8 77.7C145.7 77.7 116.3 74.3 87.2 74.7C58 75 29 79 14.5 81L0 83Z" fill="#2e365a"></path><path d="M0 153L14.5 152.7C29 152.3 58 151.7 87.2 156C116.3 160.3 145.7 169.7 174.8 170.7C204 171.7 233 164.3 262 163C291 161.7 320 166.3 349 166C378 165.7 407 160.3 436.2 160.7C465.3 161 494.7 167 523.8 168C553 169 582 165 611 160.7C640 156.3 669 151.7 698 155C727 158.3 756 169.7 785.2 171.7C814.3 173.7 843.7 166.3 872.8 161.7C902 157 931 155 945.5 154L960 153L960 105L945.5 105C931 105 902 105 872.8 107C843.7 109 814.3 113 785.2 113C756 113 727 109 698 105.3C669 101.7 640 98.3 611 95.3C582 92.3 553 89.7 523.8 85.7C494.7 81.7 465.3 76.3 436.2 83C407 89.7 378 108.3 349 111.7C320 115 291 103 262 99.3C233 95.7 204 100.3 174.8 101.3C145.7 102.3 116.3 99.7 87.2 103C58 106.3 29 115.7 14.5 120.3L0 125Z" fill="#22243c"></path><path d="M0 201L14.5 201C29 201 58 201 87.2 201C116.3 201 145.7 201 174.8 201C204 201 233 201 262 201C291 201 320 201 349 201C378 201 407 201 436.2 201C465.3 201 494.7 201 523.8 201C553 201 582 201 611 201C640 201 669 201 698 201C727 201 756 201 785.2 201C814.3 201 843.7 201 872.8 201C902 201 931 201 945.5 201L960 201L960 151L945.5 152C931 153 902 155 872.8 159.7C843.7 164.3 814.3 171.7 785.2 169.7C756 167.7 727 156.3 698 153C669 149.7 640 154.3 611 158.7C582 163 553 167 523.8 166C494.7 165 465.3 159 436.2 158.7C407 158.3 378 163.7 349 164C320 164.3 291 159.7 262 161C233 162.3 204 169.7 174.8 168.7C145.7 167.7 116.3 158.3 87.2 154C58 149.7 29 150.3 14.5 150.7L0 151Z" fill="#141320"></path></svg>