<svg xmlns="http://www.w3.org/2000/svg" xmlns:xlink="http://www.w3.org/1999/xlink" version="1.1" width="1000" height="1000" viewBox="0 0 1000 1000" xml:space="preserve">
<desc>Created with Fabric.js 3.5.0</desc>
<defs>
</defs>
<rect x="0" y="0" width="100%" height="100%" fill="rgba(255,255,255,0)"/>
<g transform="matrix(-1.0387 0 0 -1.078 500.0056 500.0014)" id="354963">
<g style="" vector-effect="non-scaling-stroke">
		<g transform="matrix(1 0 0 1 0 -84.1241)" id="visual">
<path style="stroke: none; stroke-width: 1; stroke-dasharray: none; stroke-linecap: butt; stroke-dashoffset: 0; stroke-linejoin: miter; stroke-miterlimit: 4; is-custom-font: none; font-file-url: none; fill: rgb(62,95,157); fill-rule: nonzero; opacity: 1;" transform=" translate(-480, -15.8759)" d="M 0 15 L 14.5 18.3 C 29 21.7 58 28.3 87.2 29 C 116.3 29.7 145.7 24.3 174.8 20.7 C 204 17 233 15 262 14 C 291 13 320 13 349 15.7 C 378 18.3 407 23.7 436.2 24 C 465.3 24.3 494.7 19.7 523.8 20.7 C 553 21.7 582 28.3 611 30.7 C 640 33 669 31 698 29.7 C 727 28.3 756 27.7 785.2 26.3 C 814.3 25 843.7 23 872.8 22.7 C 902 22.3 931 23.7 945.5 24.3 L 960 25 L 960 0 L 945.5 0 C 931 0 902 0 872.8 0 C 843.7 0 814.3 0 785.2 0 C 756 0 727 0 698 0 C 669 0 640 0 611 0 C 582 0 553 0 523.8 0 C 494.7 0 465.3 0 436.2 0 C 407 0 378 0 349 0 C 320 0 291 0 262 0 C 233 0 204 0 174.8 0 C 145.7 0 116.3 0 87.2 0 C 58 0 29 0 14.5 0 L 0 0 Z" stroke-linecap="round"/>
</g>
		<g transform="matrix(1 0 0 1 0 -50.9488)" id="visual">
<path style="stroke: none; stroke-width: 1; stroke-dasharray: none; stroke-linecap: butt; stroke-dashoffset: 0; stroke-linejoin: miter; stroke-miterlimit: 4; is-custom-font: none; font-file-url: none; fill: rgb(56,74,123); fill-rule: nonzero; opacity: 1;" transform=" translate(-480, -49.0512)" d="M 0 85 L 14.5 83 C 29 81 58 77 87.2 76.7 C 116.3 76.3 145.7 79.7 174.8 79.7 C 204 79.7 233 76.3 262 76.7 C 291 77 320 81 349 78.7 C 378 76.3 407 67.7 436.2 63.7 C 465.3 59.7 494.7 60.3 523.8 63.3 C 553 66.3 582 71.7 611 76.7 C 640 81.7 669 86.3 698 86.7 C 727 87 756 83 785.2 80 C 814.3 77 843.7 75 872.8 76 C 902 77 931 81 945.5 83 L 960 85 L 960 23 L 945.5 22.3 C 931 21.7 902 20.3 872.8 20.7 C 843.7 21 814.3 23 785.2 24.3 C 756 25.7 727 26.3 698 27.7 C 669 29 640 31 611 28.7 C 582 26.3 553 19.7 523.8 18.7 C 494.7 17.7 465.3 22.3 436.2 22 C 407 21.7 378 16.3 349 13.7 C 320 11 291 11 262 12 C 233 13 204 15 174.8 18.7 C 145.7 22.3 116.3 27.7 87.2 27 C 58 26.3 29 19.7 14.5 16.3 L 0 13 Z" stroke-linecap="round"/>
</g>
		<g transform="matrix(1 0 0 1 0 -7.0627)" id="visual">
<path style="stroke: none; stroke-width: 1; stroke-dasharray: none; stroke-linecap: butt; stroke-dashoffset: 0; stroke-linejoin: miter; stroke-miterlimit: 4; is-custom-font: none; font-file-url: none; fill: rgb(46,54,90); fill-rule: nonzero; opacity: 1;" transform=" translate(-480, -92.9372)" d="M 0 127 L 14.5 122.3 C 29 117.7 58 108.3 87.2 105 C 116.3 101.7 145.7 104.3 174.8 103.3 C 204 102.3 233 97.7 262 101.3 C 291 105 320 117 349 113.7 C 378 110.3 407 91.7 436.2 85 C 465.3 78.3 494.7 83.7 523.8 87.7 C 553 91.7 582 94.3 611 97.3 C 640 100.3 669 103.7 698 107.3 C 727 111 756 115 785.2 115 C 814.3 115 843.7 111 872.8 109 C 902 107 931 107 945.5 107 L 960 107 L 960 83 L 945.5 81 C 931 79 902 75 872.8 74 C 843.7 73 814.3 75 785.2 78 C 756 81 727 85 698 84.7 C 669 84.3 640 79.7 611 74.7 C 582 69.7 553 64.3 523.8 61.3 C 494.7 58.3 465.3 57.7 436.2 61.7 C 407 65.7 378 74.3 349 76.7 C 320 79 291 75 262 74.7 C 233 74.3 204 77.7 174.8 77.7 C 145.7 77.7 116.3 74.3 87.2 74.7 C 58 75 29 79 14.5 81 L 0 83 Z" stroke-linecap="round"/>
</g>
		<g transform="matrix(1 0 0 1 0 25.9336)" id="visual">
<path style="stroke: none; stroke-width: 1; stroke-dasharray: none; stroke-linecap: butt; stroke-dashoffset: 0; stroke-linejoin: miter; stroke-miterlimit: 4; is-custom-font: none; font-file-url: none; fill: rgb(34,36,60); fill-rule: nonzero; opacity: 1;" transform=" translate(-480, -125.9336)" d="M 0 153 L 14.5 152.7 C 29 152.3 58 151.7 87.2 156 C 116.3 160.3 145.7 169.7 174.8 170.7 C 204 171.7 233 164.3 262 163 C 291 161.7 320 166.3 349 166 C 378 165.7 407 160.3 436.2 160.7 C 465.3 161 494.7 167 523.8 168 C 553 169 582 165 611 160.7 C 640 156.3 669 151.7 698 155 C 727 158.3 756 169.7 785.2 171.7 C 814.3 173.7 843.7 166.3 872.8 161.7 C 902 157 931 155 945.5 154 L 960 153 L 960 105 L 945.5 105 C 931 105 902 105 872.8 107 C 843.7 109 814.3 113 785.2 113 C 756 113 727 109 698 105.3 C 669 101.7 640 98.3 611 95.3 C 582 92.3 553 89.7 523.8 85.7 C 494.7 81.7 465.3 76.3 436.2 83 C 407 89.7 378 108.3 349 111.7 C 320 115 291 103 262 99.3 C 233 95.7 204 100.3 174.8 101.3 C 145.7 102.3 116.3 99.7 87.2 103 C 58 106.3 29 115.7 14.5 120.3 L 0 125 Z" stroke-linecap="round"/>
</g>
		<g transform="matrix(1 0 0 1 0 75.7109)" id="visual">
<path style="stroke: none; stroke-width: 1; stroke-dasharray: none; stroke-linecap: butt; stroke-dashoffset: 0; stroke-linejoin: miter; stroke-miterlimit: 4; is-custom-font: none; font-file-url: none; fill: rgb(20,19,32); fill-rule: nonzero; opacity: 1;" transform=" translate(-480, -175.7108)" d="M 0 201 L 14.5 201 C 29 201 58 201 87.2 201 C 116.3 201 145.7 201 174.8 201 C 204 201 233 201 262 201 C 291 201 320 201 349 201 C 378 201 407 201 436.2 201 C 465.3 201 494.7 201 523.8 201 C 553 201 582 201 611 201 C 640 201 669 201 698 201 C 727 201 756 201 785.2 201 C 814.3 201 843.7 201 872.8 201 C 902 201 931 201 945.5 201 L 960 201 L 960 151 L 945.5 152 C 931 153 902 155 872.8 159.7 C 843.7 164.3 814.3 171.7 785.2 169.7 C 756 167.7 727 156.3 698 153 C 669 149.7 640 154.3 611 158.7 C 582 163 553 167 523.8 166 C 494.7 165 465.3 159 436.2 158.7 C 407 158.3 378 163.7 349 164 C 320 164.3 291 159.7 262 161 C 233 162.3 204 169.7 174.8 168.7 C 145.7 167.7 116.3 158.3 87.2 154 C 58 149.7 29 150.3 14.5 150.7 L 0 151 Z" stroke-linecap="round"/>
</g>
</g>
</g>
</svg>